<svg xmlns="http://www.w3.org/2000/svg" viewBox="0 0 24 24" fill="none" stroke="currentColor" stroke-width="1.8" stroke-linecap="round" stroke-linejoin="round"><circle cx="12" cy="12" r="3"/><path d="M19.4 15a1.65 1.65 0 0 0 .33 1.82 2 2 0 1 1-2.83 2.83 1.65 1.65 0 0 0-1.82-.33 1.65 1.65 0 0 0-1 1.51 2 2 0 1 1-4 0 1.65 1.65 0 0 0-1-1.51 1.65 1.65 0 0 0-1.82.33 2 2 0 1 1-2.83-2.83A1.65 1.65 0 0 0 4.6 15a1.65 1.65 0 0 0-1.51-1 2 2 0 1 1 0-4 1.65 1.65 0 0 0 1.51-1 1.65 1.65 0 0 0-.33-1.82 2 2 0 1 1 2.83-2.83 1.65 1.65 0 0 0 1.82.33h0A1.65 1.65 0 0 0 10 3.09a2 2 0 1 1 4 0 1.65 1.65 0 0 0 1 1.51h0a1.65 1.65 0 0 0 1.82-.33 2 2 0 1 1 2.83 2.83 1.65 1.65 0 0 0-.33 1.82v0A1.65 1.65 0 0 0 20.91 10a2 2 0 1 1 0 4 1.65 1.65 0 0 0-1.51 1z"/></svg>

